<?xml version="1.0" encoding="UTF-8"?>
<svg version="1.1" viewBox="0 0 2048 670" width="1280" height="1280" xmlns="http://www.w3.org/2000/svg">
<path transform="translate(576,91)" d="m0 0h22l16 4 12 5 13 9 13 13 8 13 6 15 2 10v24l-4 16-8 16-2 3 32 1 16 1 6 5 3 9 16 64v4h2l1-9 16-64 4-6 4-3h112l7 6 1 3 1 122 3 10 4 4 5 2h12l8-3 4-5 1-3 1-126 3-6 5-4 5-1h39l7 1 3-1h39l7 3 4 5 1 2v131h53l14 1v-85h-42l-5-3-4-5-1-3v-34l3-7 5-4 4-1h188l6 1 4-1h55l8 3 4 6 18 73 5-18 14-56 5-6 6-2h45l17 1 88-1h44l6 1 4-1h38l7 3 4 4 1 2 1 25 7-9 6-7 13-10 17-8 16-4 7-1h26l20 4 15 6 12 8 10 9 9 12 2 3 7-13 9-10 7-6 16-8 14-4 8-1h25l17 3 13 5 11 6 10 9 8 9 7 14 4 16v12l-4 6-6 3-29 1 16 7 10 7 9 9 7 14 2 8 1 14-1 13-5 16-7 11-7 8-13 9-12 5-16 4-6 1h-31l-20-4-13-5-12-7-7-6-8-10-3-5v-2h-2l-2 5-11 12-10 8-16 8-13 4-13 2h-29l-17-3-16-6-13-8-10-9-7-8-2-3-1 23-6 7-2 1h-176l5 10 6 10v15l-1 3v17l2 4v15l-4 7-6 3h-42l-7-1-6 2-12 1-11-2-10-5-4 1-8 4-11 2-12-1-10-4-5-3-9 6-4 1h-16l-9-4-5-4-5-10-1-4v-13l3-6 6-4h11v-18l3-7 5-4 3-1h15l6 3 5-1 9-3h16l11 4 5 3 8-5 6-2h17l8 3 5-1 5-3 5-5 4-2-26-1-6-4-3-7-1-14-5 18-4 5-4 2h-45l-6-4-3-6-4-15-1 15-3 6-6 4h-91l-6-4-3-7v-131h-34v133l-4 6-5 3h-175l-6-4-3-7-1-10-11 11-14 8-13 5-16 3h-30l-16-3-13-5-12-7-11-10v-2h-2v13l-6 7-2 1h-43l-6-4-3-5-1-17-6 20-7 6h-45l-5-3-4-6-5-19v15l-2 7-7 6h-42l-5-3-4-5-1-154-1-15-14 7-17 4h-23l-16-4-16-8-11-8-8-8-6-1-6 4-2 3 1 13v22l-3 19-5 17-10 22v17l4 12 7 10 8 7 8 4 4 1 20 2 15 4 17 8 13 10 10 10 10 15 6 15 3 12 1 7v16l-3 16-5 13-7 13-9 11-7 7-13 9-14 7-13 4-14 2h-14l-17-3-14-5-13-7-10-8-12-12-8-13-5-10-4-14-1-6v-30l3-14 5-12 2-3v-10l-4-11-4-6-6-5-10-4-8-1-16 3-11 1h-12l-14-2-16-5-15-6-5 1-5 5-3 5-1 9 7 22 1 6v22l-4 16-8 16-7 9-5 6-13 10-15 7-15 4h-24l-15-4-16-8-9-7-6-5-9-12-8-16-4-16v-22l4-16 8-16 8-11 11-10 13-8 13-5 9-2 17-1h12l9-3 5-5 1-9-9-15-8-16-6-19-3-20-2-16-5-8-3-2h-10l-12 6-10 7-14 7-17 4h-22l-16-4-16-8-10-8-9-9-8-13-5-12-2-9-1-14 2-15 5-15 9-14 9-10 11-8 14-7 14-4 9-1h10l14 2 15 5 15 9 8 7 11 14 7 15 4 13 5 6 4 2h11l6-3 11-12 7-8 10-9 15-10 16-8 17-6 15-3 10-1h17l21 3 16 5 16 7 16 10 14 12 12 13 4 5 2 1 9-1 5-5 3-21 4-13 8-15 11-13 10-8 14-8 16-5zm1269 181-7 3-1 4 5 5 16 5 20 5 2-1-3-6-2-8-4-5-6-2zm-151 1-10 3-9 8-5 10-3 12-1 9v14l2 15 5 12 5 5 5 4 10 3h13l10-3 7-5 7-11 3-10 1-7v-20l-3-16-4-9-6-8-10-5-5-1zm-213 4v10l77 1v-11zm315 47-1 17 30 1 6 3 3 4 3 12 5 5 7 3 6 1h11l9-2 5-4 1-2v-6l-4-3-13-4-30-7-20-7-12-7zm-315 20v18h77v-18z" fill="#ECEBEB"/>
<path transform="translate(367,139)" d="m0 0h27l20 4 15 6 13 7 11 8 12 11 11 14 8 14 7 19 3 16v27l-3 16-7 19-7 15-3 11v18l4 13 6 11 7 8 10 7 13 6 8 2 18 2 16 5 12 7 12 10 9 12 6 13 3 10 1 7v16l-3 14-5 12-7 11-12 12-14 9-14 5-13 2h-10l-13-2-14-5-12-7-12-11-7-10-6-12-4-15v-23l4-14 5-13 1-5v-9l-3-12-6-11-9-10-10-7-11-5-14-3h-45l-21-5-16-7-12-7-10-8-14-14-9-13-8-16-5-15-3-18v-19l3-18 5-15 8-16 10-14 15-15 13-9 16-8 14-5z" fill="#00A858"/>
<path transform="translate(888,102)" d="m0 0h21l13 4 11 7 2 2 4-6 5-4 4-1h65l8 2 6-2h21l7 3 6 7 6 10 1-10 4-6 4-3 4-1h19l8 1 4-1h72l8 1 4-1h47l12 2 10 5 7 6 4 6v2h2l2-4 7-8 11-7 13-4h23l13 4 11 7 7 7 7 12 4 14 1 6v20l-3 15-7 14-10 10-8 5-13 4-8 1h-11l-12-2-12-5-9-7-4-4v-2h-2v8l-4 6-6 3h-23l-6-3-4-5-1-4v-22h-6v24l-3 5-5 4-3 1h-22l-6-3-4-5-1-3v-61h-14v63l-4 6-7 3h-22l-8-4-3-5v-63h-14v63l-4 6-6 3h-22l-6-3-6-8-8-13-1 14-4 6-4 3-3 1h-22l-5-1-3 1h-70l-8-4-4-8-10 8-11 5-12 2-15-1-12-4-10-6-8-8-7-12-4-14-1-8v-12l3-17 5-12 8-11 9-7 10-5zm6 42-3 5-1 4v16l3 8 1 1h8l4-9 4-5 6-2 20-1-1-2-22-1-6-4-4-9-1-1zm424 0-5 5-2 8v10l3 9 5 3 7-1 4-4 2-7v-10l-2-9-4-4z" fill="#ECEBEB"/>
<path transform="translate(1195,428)" d="m0 0h16l11 4 10 9 5 10 2 9v14l-3 11-5 8-8 7-10 4-12 1-14-3-10-7-14 7-4 1h-46l-6-3-3-3-6 5-3 1h-34l-7-4-2-3v-3l-10 8-9 3-11 1-11-2-8-4-7-7-3-7-6 1-2 9-5 6-4 2h-59l-8-4-7 3-5 1h-28l-6-4-3-3-1-3v-53l3-6 5-4 3-1h25l13 4 5-2 4-2h70l11 2 5-2h15l4 2 6-1 2-1h83l7 4 2 2 6-5 3-1h25l11 3 10 6 7-6z" fill="#ECEBEB"/>
<path transform="translate(368,163)" d="m0 0h25l17 4 17 8 12 9 11 11 9 14 7 16 3 13v28l-4 16-8 17-10 13-9 9-13 9-13 6-14 4-6 1h-23l-17-4-16-7-11-8-10-9-8-10-8-14-5-14-2-10v-26l4-16 7-16 10-14 10-10 13-9 13-6 13-4z" fill="#EDECEC"/>
<path transform="translate(1252,234)" d="m0 0h53l2 6 29 117 5-18 26-105h52v172h-33l-1-114-31 114h-36l-3-8-28-103-1 111h-34z" fill="#7C1C1F"/>
<path transform="translate(644,234)" d="m0 0h53l31 124 29-117 2-7h52v172h-34l-1-112-17 63-13 47-1 2h-36l-18-65-13-48-1 113h-33z" fill="#7C1C1F"/>
<path transform="translate(1690,228)" d="m0 0h20l17 3 13 5 10 6 10 9 8 10 7 14 5 16 2 12 1 12v14l-2 19-4 16-8 16-6 8-9 9-14 8-15 5-13 2h-23l-17-3-13-5-12-7-12-12-8-13-5-13-4-20-1-21 2-21 4-16 5-12 7-12 10-11 10-7 12-6 15-4zm4 45-10 3-9 8-5 10-3 12-1 9v14l2 15 5 12 5 5 5 4 10 3h13l10-3 7-5 7-11 3-10 1-7v-20l-3-16-4-9-6-8-10-5-5-1z" fill="#7C1C1F"/>
<path transform="translate(1481,104)" d="m0 0h38l16 3 12 6 9 8 1 2 1-9 4-6 4-3 4-1h66l7 3 4 5 1 3v20l-5 10 1 2v24l-3 6 5 2 3 4 1 3v22l-4 6-4 3-3 1h-70l-6-3-4-5-2-10-8 8-10 6-9 3-7 1h-42l-7-3-4-5-1-4v-90l3-7 5-4zm32 42v30l2 1 6-2 2-2 1-4v-17l-2-5-2-1z" fill="#ECECEC"/>
<path transform="translate(1471,429)" d="m0 0h20l7 2 5-2h19l6 3 4 3 4-4 5-2h16l6 3 4 3 4-4 4-2h31l10 2 5-2h15l6 3 4 3 4-4 5-2h16l6 3 4 5 17 48v10l-5 6-4 2h-18l-5-3-4-3-5 5-3 1h-52l-4-2-4 1-3 1h-34l-9-6-5 5-3 1h-69l-6-3-4-5v-57l4-6z" fill="#ECEBEB"/>
<path transform="translate(1872,428)" d="m0 0h17l10 4 8 6 6 10 3 10v17l-4 13-9 10-9 5-16 2-11-2-5-2-5 2h-136l-6-4-4-6v-53l3-6 5-4 3-1h20l4 2 4-1 3-1h80l6 3 4 5 1 2 1 17 4-11 6-8 8-6z" fill="#ECEBEB"/>
<path transform="translate(1433,234)" d="m0 0h126v30h-91v37h84v30h-84v44h95l1 1v30h-131z" fill="#7C1C1F"/>
<path transform="translate(1844,228)" d="m0 0h21l16 3 13 5 9 6 8 7 7 11 4 10 2 14-1 1h-33l-2-7-5-10-9-6-6-2-7-1h-11l-11 2-8 4-5 6-1 4v7l4 8 7 5 15 5 35 9 16 6 11 6 7 6 6 10 3 11v19l-3 12-7 12-7 7-14 8-13 4-14 2h-22l-18-3-13-5-10-6-8-7-7-11-4-10-2-15 1-1h34l4 13 7 8 10 5 9 2h17l12-3 8-6 4-8v-12l-4-7-12-6-19-5-24-6-16-6-10-6-7-6-7-11-3-14v-10l3-14 6-12 7-8 11-7 14-5z" fill="#7C1C1F"/>
<path transform="translate(576,106)" d="m0 0h19l15 4 11 6 10 8 8 9 8 16 3 11v21l-4 15-6 11-9 10-9 8-16 8-15 3h-12l-14-3-16-8-10-8-7-6-7-3h-8l-11 4-6 4-4 5h-2l-4-14-6-11v-2l11 1 10-2 6-4 4-5 4-9 3-21 5-13 7-11 10-10 11-7 12-5z" fill="#ECECEC"/>
<path transform="translate(824,234)" d="m0 0h37l1 121 4 13 8 9 10 4h18l11-4 7-6 4-8 2-12 1-117h36v127l-4 16-6 11-7 8-14 9-15 5-13 2h-22l-17-3-12-5-11-7-9-10-6-13-2-9-1-10z" fill="#7C1C1F"/>
<path transform="translate(295,333)" d="m0 0 7 6 10 8 10 6-4 3-9 6-6 10-3 7v16l4 14 3 9 1 6v15l-3 13-8 15-8 9-13 9-12 5-8 2h-21l-12-3-14-7-10-9-7-8-7-14-3-13v-14l4-15 7-13 10-11 14-9 11-4 13-2 18-1 13-3 10-6 8-9 4-13z" fill="#EBEAEA"/>
<path transform="translate(668,429)" d="m0 0h154l10 3 8 7 5 8 2 8-1 11-5 10-7 6-7 3-6 2-2 10-6 5-2 1h-143l-8-4-3-6v-54l3-5 5-4z" fill="#EBEBEB"/>
<path transform="translate(156,126)" d="m0 0h16l12 3 14 7 12 11 7 11 5 12 5 13 7 9 7 6 7 3 12 1 14-2-1 5-5 13-4 19h-2v-2l-4-2-7-6-10-5-4-1h-13l-10 4-11 8-9 7-12 5-7 2h-22l-13-4-12-7-8-7-9-13-5-12-2-10v-15l3-13 7-14 11-12 10-7 12-5z" fill="#EAE9E9"/>
<path transform="translate(394,200)" d="m0 0h7l43 13v4l-5 4v10l8 4-1 2-5 1 2 4v13l-4 7 2 1-1 4-4 2-1 2-1 10 9 3-1 3-70 17-7-1-43-14-5-3-3-7v-12l3-5-3-1 2-3 6-2v-10l-3-3-3-2 1-3 4-2-3-7v-11l3-6 3-2z" fill="#00A858"/>
<path transform="translate(521,408)" d="m0 0h11l14 3 14 7 12 11 7 11 4 11 1 4v19l-4 13-6 11-7 8-13 9-13 5-5 1h-19l-12-3-13-7-10-9-7-10-5-12-2-10v-10l3-14 6-12 9-10 8-7 13-6z" fill="#ECEBEB"/>
<path transform="translate(1055,234)" d="m0 0h140v30h-52v142h-36v-142h-52z" fill="#7C1C1F"/>
<path transform="translate(977,234)" d="m0 0h36v141h85v31h-121z" fill="#7C1C1F"/>
<path transform="translate(295,333)" d="m0 0 7 6 10 8 10 6-4 3-9 6-6 10-3 7v16l4 14 3 9 1 6v15l-3 13-8 15-8 9-13 9-12 5-8 2h-21l-12-3-14-7-10-9-7-8-7-14-3-13v-14l4-15 7-13 10-11 14-9 11-4 13-2 18-1 13-3 10-6 8-9 4-13zm-55 50-12 3-11 6-11 11-6 12-2 8v15l4 13 7 10 8 8 14 7 10 2h10l13-3 11-6 7-6 7-10 4-10 1-4v-17l-3-10-6-10-6-7-9-6-12-5-6-1z" fill="#F58634"/>
<path transform="translate(1571,234)" d="m0 0h36v172h-36z" fill="#7C1C1F"/>
<path transform="translate(1204,234)" d="m0 0h36v172h-36z" fill="#7C1C1F"/>
<path transform="translate(576,106)" d="m0 0h19l15 4 11 6 10 8 8 9 8 16 3 11v21l-4 15-6 11-9 10-9 8-16 8-15 3h-12l-14-3-16-8-10-8-7-6-7-3h-8l-11 4-6 4-4 5h-2l-4-14-6-11v-2l11 1 10-2 6-4 4-5 4-9 3-21 5-13 7-11 10-10 11-7 12-5zm4 15-16 4-10 6-8 7-7 11-4 10-1 5v14l4 13 6 10 7 8 11 7 11 4 6 1h13l12-3 13-7 10-10 5-8 4-12v-20l-4-11-6-10-9-9-16-8-10-2z" fill="#076D44"/>
<path transform="translate(156,126)" d="m0 0h16l12 3 14 7 12 11 7 11 5 12 5 13 7 9 7 6 7 3 12 1 14-2-1 5-5 13-4 19h-2v-2l-4-2-7-6-10-5-4-1h-13l-10 4-11 8-9 7-12 5-7 2h-22l-13-4-12-7-8-7-9-13-5-12-2-10v-15l3-13 7-14 11-12 10-7 12-5zm2 13-12 3-11 6-7 6-7 10-4 11-1 5v12l3 11 4 8 9 10 8 6 9 4 9 2h12l12-3 11-6 7-6 7-10 4-10 1-5v-14l-4-13-7-11-9-8-10-5-11-3z" fill="#E73435"/>
<path transform="translate(1312,115)" d="m0 0h19l11 4 6 4 7 7 5 11 2 7 1 8v13l-3 15-5 9-5 6-8 5-10 3h-21l-11-4-8-6-6-8-4-9-2-13v-10l2-13 5-12 9-10 12-6zm6 29-5 5-2 8v10l3 9 5 3 7-1 4-4 2-7v-10l-2-9-4-4z" fill="#7C1C1F"/>
<path transform="translate(1483,118)" d="m0 0h42l11 4 8 6 6 7 4 9 2 10v12l-3 14-5 10-9 9-8 4-4 1h-44zm30 28v30l2 1 6-2 2-2 1-4v-17l-2-5-2-1z" fill="#7C1C1F"/>
<path transform="translate(1196,118)" d="m0 0h52l10 5 6 7 2 5 1 8-2 10-5 7-5 2v2l5 2 3 4 1 3v31h-17l-1-25-3-6-7-2-22-1v34h-18z" fill="#7C1C1F"/>
<path transform="translate(1692,260)" d="m0 0h17l13 4 10 7 7 10 5 12 3 16v25l-3 15-8 16-8 8-12 6-7 2h-18l-13-4-9-6-8-9-5-12-3-16v-24l3-16 5-13 7-9 7-6 12-5zm2 13-10 3-9 8-5 10-3 12-1 9v14l2 15 5 12 5 5 5 4 10 3h13l10-3 7-5 7-11 3-10 1-7v-20l-3-16-4-9-6-8-10-5-5-1z" fill="#ECEBEB"/>
<path transform="translate(1028,118)" d="m0 0h20l10 17 13 21 9 15 1-53h17v86h-17l-11-17-15-24-9-14-1 55h-17z" fill="#7C1C1F"/>
<path transform="translate(1571,118)" d="m0 0h64v14l-1 1h-45v18h41l1 1v14l-1 1h-41v22h48v15h-66z" fill="#7C1C1F"/>
<path transform="translate(949,118)" d="m0 0h63v15h-46v18h42l1 1v14l-1 1h-42v22h48v15h-65z" fill="#7C1C1F"/>
<path transform="translate(890,115)" d="m0 0h17l11 4 8 6 6 8 3 8v5h-18l-5-10-7-4-9-1-9 3-6 7-3 10v20l3 10 4 6 5 3 11 1 8-3 3-1 2-5 3-7h18l-2 9-4 8-7 8-9 5-6 2h-18l-11-4-8-6-6-9-4-10-1-4v-24l4-14 7-10 7-6 9-4z" fill="#7C1C1F"/>
<path transform="translate(584,130)" d="m0 0 2 2 3 7 7 6 12 3v19l-3 12-1 2 3-1h10l5 3 5 8-2 1-3-2-2 8-3 2-2-7h-8l-11 4-6 2-5 4-4-2-7-6-7-10-6-8-2-1h-7l-5 8-3 4 1-10 1-4h-2l1-5 6-7 2-1h6l1-13 10-2 8-5 5-8z" fill="#076F45"/>
<path transform="translate(494,441)" d="m0 0h65l1 1v38l-1 1h-66v-39z" fill="#ECEBEB"/>
<path transform="translate(1112,118)" d="m0 0h70v15h-26v71h-18v-71h-26z" fill="#7C1C1F"/>
<path transform="translate(1319,441)" d="m0 0h11l8 3 6 7 3 8v15l-3 8-5 6-7 3h-14l-8-4-6-7-2-7v-13l3-9 5-6z" fill="#7C1C1F"/>
<path transform="translate(1875,441)" d="m0 0h11l9 4 5 6 3 10v11l-3 10-4 5-9 4h-13l-7-3-5-4-4-10v-15l4-10 7-6z" fill="#7C1C1F"/>
<path transform="translate(1198,441)" d="m0 0h11l10 5 5 8 2 9v8l-3 10-6 7-7 3h-14l-8-4-5-6-2-6v-17l4-9 7-6z" fill="#7C1C1F"/>
<path transform="translate(1315,131)" d="m0 0h13l8 4 5 6 3 7 1 5v17l-3 10-5 7-7 4-4 1h-10l-9-4-6-7-3-11v-16l4-13 6-7zm3 13-5 5-2 8v10l3 9 5 3 7-1 4-4 2-7v-10l-2-9-4-4z" fill="#EBEBEB"/>
<path transform="translate(1133,443)" d="m0 0h26l8 5 4 5 2 5v16l-4 8-7 6-7 2h-21l-1-1z" fill="#7C1C1F"/>
<path transform="translate(872,443)" d="m0 0h26l8 5 4 5 2 5v16l-4 8-7 6-7 2h-21l-1-1z" fill="#7C1C1F"/>
<path transform="translate(1500,133)" d="m0 0h23l8 4 5 8 1 4v23l-4 10-7 6-7 2h-19zm13 13v30l2 1 6-2 2-2 1-4v-17l-2-5-2-1z" fill="#EBEBEA"/>
<path transform="translate(1724,443)" d="m0 0h15l5 18 3 12 2-4 6-24 1-2h14v47h-9l-1-28-7 26-1 2h-9l-3-7-6-21v27l-1 1h-8l-1-1z" fill="#7C1C1F"/>
<path transform="translate(1474,443)" d="m0 0h14l3 9 6 23 8-32h14v47h-8l-1-1-1-25-7 25-1 1h-9l-3-9-5-18-1 26-1 1h-8z" fill="#7C1C1F"/>
<path transform="translate(1578,443)" d="m0 0h30l6 4 2 4v10l-4 5 2 4 1 1v19h-9l-1-14-1-3-2-1-14-1v18l-1 1h-8l-1-1z" fill="#7C1C1F"/>
<path transform="translate(797,443)" d="m0 0h27l6 4 3 6v10l-4 6-5 3-16 1-1 17h-9l-1-1z" fill="#7C1C1F"/>
<path transform="translate(1098,443)" d="m0 0h12l4 10 12 34v3h-10l-3-10h-18l-3 10h-10l1-6 13-36z" fill="#7C1C1F"/>
<path transform="translate(1657,443)" d="m0 0h12l16 45v2h-10l-3-7v-3l-18 1-4 9h-9l1-6 14-40z" fill="#7C1C1F"/>
<path transform="translate(1543,443)" d="m0 0h12l13 36 3 11h-10l-3-7v-3h-18l-3 9-1 1h-9l2-9 13-36z" fill="#7C1C1F"/>
<path transform="translate(963,443)" d="m0 0h26l6 4 3 5v11l-4 6-5 3-16 1-1 17h-9z" fill="#7C1C1F"/>
<path transform="translate(1778,443)" d="m0 0h35v8h-25v10h23v8h-23v12h26v9h-35l-1-1z" fill="#7C1C1F"/>
<path transform="translate(1399,443)" d="m0 0h35v7l-1 1h-24v10h23v8h-23v12h25l1 1v7l-1 1h-35z" fill="#7C1C1F"/>
<path transform="translate(920,443)" d="m0 0h35v7l-1 1h-24v10h23v8h-23v12h26v8l-1 1h-34l-1-1z" fill="#7C1C1F"/>
<path transform="translate(755,443)" d="m0 0h35v7l-1 1h-24v10h23v8h-23v12h25l1 1v7l-1 1h-35z" fill="#7C1C1F"/>
<path transform="translate(670,443)" d="m0 0h35v7l-1 1h-24v10h23v8h-23v12h26v8l-1 1h-34l-1-1z" fill="#7C1C1F"/>
<path transform="translate(1366,441)" d="m0 0h11l7 3 5 5 1 7h-9l-3-5-3-1h-7l-4 1v6l5 3 15 4 6 4 2 5v7l-3 6-6 4-3 1h-14l-8-4-4-5-1-6h10l3 5 2 1h10l3-2v-6l-7-3-13-4-5-4-2-5 1-9 4-5z" fill="#7C1C1F"/>
<path transform="translate(713,443)" d="m0 0h34v8h-25v10h23v8h-23v12h26v9h-35z" fill="#7C1C1F"/>
<path transform="translate(1e3 443)" d="m0 0h10l1 34 2 4 2 1h8l4-4 1-35h10v36l-3 6-6 5-3 1h-14l-8-4-4-8z" fill="#7C1C1F"/>
<path transform="translate(320,266)" d="m0 0h6l36 12 8 3v15l-8-1-39-11-4-4v-12z" fill="#ECEBEB"/>
<path transform="translate(432,241)" d="m0 0h5l2 9-2 7-6 3-39 11h-4l-1-2v-13l36-12z" fill="#ECEBEB"/>
<path transform="translate(325,216)" d="m0 0 7 1 40 13 2 1v15l-8-1-39-11-4-4v-12z" fill="#ECEBEB"/>
<path transform="translate(490,438)" d="m0 0h72l2 3v41l-2 3h-71l-2-2v-43zm4 3-1 1v39h66l1-1v-38l-1-1z" fill="#00A858"/>
<path transform="translate(425,270)" d="m0 0h6v12l-18 5-36 9h-4v-15l19-4z" fill="#EBEBEA"/>
<path transform="translate(431,220)" d="m0 0h5l-1 12-9 3-49 12v-15l5-2z" fill="#EBEBEA"/>
<path transform="translate(326,245)" d="m0 0 10 1 48 10v15l-8-1-49-12-1-2z" fill="#EBEBEB"/>
<path transform="translate(1214,133)" d="m0 0h29l6 5 1 9-3 6-6 3h-27z" fill="#ECEBEB"/>
<path transform="translate(148,148)" d="m0 0 4 1 1 5-1 2 2 1 10 1 1 11 6-1 2 2-1 4-7-1-1 14h-11l1-7-1-1h-7l1 8h-11v-13l8 1v-7h-5l-3 1v-11l12-1-2-4 1-4z" fill="#E73635"/>
<path transform="translate(224,402)" d="m0 0 4 2 5 6 2 9-4 2-1 3 7-1 18-6 4 1 3 22v8l-5 4-6-1-1-1v-5l5-4h4l-2-16-19 6h-2l2 15v10l-3 3-5 1-4-3 1-5 4-3h5l-2-8-1-11-6 1-6 2-5-1-1-4 3-3h5z" fill="#F58634"/>
<path transform="translate(165,158)" d="m0 0h11l-1 7 5 1 2-2-1-6h11l1 12 4-2 4 1 1 4-2 2-5-1-2-1-1 14-11 1 1 7-5 1-1-5v-3l-11-1v-12h3l5-1 1-4-1-2h-8z" fill="#E73635"/>
<path transform="translate(552,163)" d="m0 0h8l6 4 7 6 2 1h8l4-3 3 4-1 7-1 5h7l11-5h12l4 3v2l-3 2v7l-4-5h-7l-15 5-7-1-6-3 1-5 1-3 3 1 1-3-3-1-1 2h-10l-10-7-4-2h-6l-4 3 1-5 2-4h-2v2l-2-1z" fill="#E8E7E6"/>
<path transform="translate(1875,450)" d="m0 0h10l5 3 3 7v13l-3 6-4 3-9 1-6-3-3-5-1-11 2-8 4-5z" fill="#EBEAEA"/>
<path transform="translate(1198,450)" d="m0 0h10l6 5 2 6v11l-4 8-6 3-9-1-5-5-2-6v-9l3-8z" fill="#EBEAEA"/>
<path transform="translate(1320,450)" d="m0 0h10l5 4 3 10-1 10-4 6-5 3h-7l-5-3-4-6v-14l4-8z" fill="#EBEAEA"/>
<path transform="translate(1050,443)" d="m0 0h38v8h-14v39h-9l-1-1v-38h-14z" fill="#7C1C1F"/>
<path transform="translate(1821,443)" d="m0 0h10v38h23v9h-33z" fill="#7C1C1F"/>
<path transform="translate(149,179)" d="m0 0 4 1-1 7 1 1 11 1v7l-2 1-4-1-2 1v6l5 1 3-1v11h-12l1-7-5-1h-2l1 8h-11l-1-11-7 1-2-4 2-3 7 1 1-9 10-1 2-1-1-6z" fill="#E73635"/>
<path transform="translate(183,188)" d="m0 0 9 1v9l-7-1-1 4 2 3 6-1 1 2v9l-12 1 1 7-2 2-4-1-1-4 2-4-12-1v-10l-2-2-6 1-1-4 2-2 6 1 1-9h11l-1 6 5 2 3-3-1-5z" fill="#E83835"/>
<path transform="translate(1285,443)" d="m0 0h9v39l-3 5-6 4h-12l-6-4-3-9v-6h9l2 9 1 1h7l1-4z" fill="#7C1C1F"/>
<path transform="translate(882,451)" d="m0 0h13l5 3 2 4v16l-4 6-5 2h-11z" fill="#EAE9E9"/>
<path transform="translate(1143,451)" d="m0 0h13l5 3 2 4v15l-3 6-6 3h-11z" fill="#ECEBEB"/>
<path transform="translate(553,161)" d="m0 0h6l-1 2-7 2-3 4 1-1h2l-2 8 3-3h6l8 5 6 4h10l5-1-1 5-4-2-1 5-1 3 9 3 8-1 11-4h7l3 4v-6l4-1-4-4-11-1v-2h10l5 3 5 8-2 1-3-2-2 8-3 2-2-7h-8l-11 4-6 2-5 4-4-2-7-6-7-10-6-8-2-1h-7l-5 8-3 4 1-10 1-4h-2l1-5 6-7z" fill="#067547"/>
<path transform="translate(483,486)" d="m0 0h86l1 5-1 1h-85l-2-4z" fill="#00A858"/>
<path transform="translate(1624,443)" d="m0 0h10v46l-1 1h-9z" fill="#7C1C1F"/>
<path transform="translate(584,136)" d="m0 0 4 5 2 4h3l-1 5 3-3 4 2-4 4 5-3h6l-1 3-10 4 11-3v6h-17l-1-15h-2l-3-3v5l-3 1v12h-18v-6l9 2-9-4v-2l6-1 4 2-2-3 4-1 3 2-1-4 2-1 1 1 1-4z" fill="#D6CFCE"/>
<path transform="translate(606,182)" d="m0 0h12l4 3v2l-3 2v7l-4-5h-7l-15 5-7-1-6-3 1-5 1-3 5 2 1 1h7z" fill="#E9E8E8"/>
<path transform="translate(164,158)" d="m0 0h1v10l2-1h6l2 5-3 4-6-1-1 12h11l1 4v4h4l-1-7 1-1h11l1 1v11h-1v-10h-9l1 5-4 4-5-2-1-5 1-1-10-1v9h-4l-4 1v4l7-2 2 3v7l-2 3v-11l-3 2-5-1-1-1v-6l5-2 3 1 1-7h-11l-2-4 2-5-5 1 1 6-3 2h-10v9h-1v-10l1-1h11l-2-6 3-3h5l2 2-1 5-1 2h11v-14h4 4l-1-4-6 1-1-1z" fill="#D2CBC9"/>
<path transform="translate(224,402)" d="m0 0 4 2 5 6 2 9-4 2-1 3 3 1v5l-6 1-6 2-5-1-1-4 3-3h5z" fill="#D2CAC8"/>
<path transform="translate(583,142)" d="m0 0 3 1v2h2l2 13-1 2h17v-6h1v7h-20l-1 9-2 1-2-10-22 1v-14l6 1-4 1 1 2 13 5-3 1-10-3-1 5h18v-12l2-1z" fill="#029050"/>
<path transform="translate(581,160)" d="m0 0 2 1v11l2 1-2 2h-8l-8-6-5-4-4-3 3-1z" fill="#076D44"/>
<path transform="translate(972,451)" d="m0 0h14l4 4-1 7-2 2-4 1h-10l-1-1z" fill="#E8E7E7"/>
<path transform="translate(807,451)" d="m0 0h14l3 2 1 6-3 5-4 1h-10l-1-1z" fill="#E9E7E7"/>
<path transform="translate(1588,451)" d="m0 0h17l2 2v7l-3 3h-16z" fill="#ECECEB"/>
<path transform="translate(584,130)" d="m0 0 2 2 3 7 7 6 12 3-1 5-5 3-5 2-4-1 12-5 1-2-7 2-5 3-2-1 6-5h-4l-3 2 2-6-4 2-1-5-4-5-4 5v5l-3-2 1 6-4-3-3 1 5 5-5-2-7-3 3-2 10-5 4-5z" fill="#029250"/>
<path transform="translate(572,147)" d="m0 0 4 2 4 3v8h-18v-6l9 2-9-4v-2l6-1 4 2-2-3z" fill="#CACBC5"/>
<path transform="translate(224,402)" d="m0 0 4 2 5 6 1 6-2 3-1-8-4-3-1 6-1 16-4 3-5-1-1-4 3-3h5z" fill="#F58634"/>
<path transform="translate(607,180)" d="m0 0h10l5 3 5 8-2 1-3-2-2 8-3 2-2-7h-8l-11 4h-3v-2l15-5h7l3 4v-6l4-1-4-4-11-1z" fill="#049753"/>
<path transform="translate(1548,454)" d="m0 0 2 1 5 17h-12l2-9z" fill="#E4E2E1"/>
<path transform="translate(553,161)" d="m0 0h6l-1 2-7 2-3 4 1-1h2l-2 8 3-3h6l8 5-2 2-5-4h-7l-5 8-3 4 1-10 1-4h-2l1-5 6-7z" fill="#078D51"/>
<path transform="translate(1662,454)" d="m0 0 2 1 4 13v4h-11l2-9z" fill="#E4E2E1"/>
<path transform="translate(1103,454)" d="m0 0h2l5 16v2h-12l3-11z" fill="#E5E2E2"/>
<path transform="translate(265,405)" d="m0 0 5 2 6 4 1 7-2-4-3-3-4-1 6 16v5l-2 2h-6l1-6 4-1-6-18z" fill="#F58634"/>
<path transform="translate(261,424)" d="m0 0 3 3 3 1-1 5 9-2-3 4h-7l-1 7 2 1-2 6-4 1 1-2-1-21z" fill="#D4CDCB"/>
<path transform="translate(1423,426)" d="m0 0h2l2 6-14 6h-2l-1-4 9-6z" fill="#7C1C1F"/>
<path transform="translate(297,334)" d="m0 0 4 2 3 1 1-2 8 7 5 4-1 1 3 2h-2l-1 2-10-7-10-9z" fill="#DCD7D6"/>
<path transform="translate(240,383)" d="m0 0h12l12 3v3h-2v-2h-31v-2z" fill="#D1C9C7"/>
<path transform="translate(227,472)" d="m0 0 8 1 1 1h21v3l-6 1h-10l-12-3-3-2z" fill="#D5CDCC"/>
<path transform="translate(584,130)" d="m0 0 2 2 1 6-3-1-4 5v5l-3-2 1 6-4-3-3 1 5 5-5-2-7-3 3-2 10-5 4-5z" fill="#038F4F"/>
<path transform="translate(584,146)" d="m0 0 1 4h2l1 5-2 2 1 4-1 9-2 1-2-13-1-4 1-3h2z" fill="#DEDAD9"/>
<path transform="translate(560,148)" d="m0 0 6 1-4 1 1 2 13 5-3 1-10-3-1 5 18-1 2-1-1 3-21 1z" fill="#019F55"/>
<path transform="translate(584,136)" d="m0 0 4 5 2 4-2 2v-2h-2l-3-3v5l-3 1-1 4-3-4 1-4 2 1 1-4z" fill="#E5E2E2"/>
<path transform="translate(268,410)" d="m0 0 6 1 2 3 3-1v6h-5l-1 4-2-3z" fill="#E2DFDE"/>
<path transform="translate(307,414)" d="m0 0 2 4 1 5v16l-1 5-2 7h-2l2-12v-15l-1-8z" fill="#D2CAC8"/>
<path transform="translate(181,187)" d="m0 0h11l1 1v11h-1v-10h-9l1 5-4 4-5-2-1-5 3-3v7h4l-1-7z" fill="#D7D0CE"/>
<path transform="translate(232,432)" d="m0 0 2 1 2 16-7 2-2 3-2-1 1-3 5-5 1-3-1-7z" fill="#D2CAC8"/>
<path transform="translate(199,418)" d="m0 0 2 2 1 6v8l-2 3 1 5h-2l-1-4v-15z" fill="#D1C8C6"/>
<path transform="translate(158,195)" d="m0 0 7 1-1 3-6-1-1 5 7-2 2 3v7l-2 3v-11l-3 2-5-1-1-1v-6z" fill="#D6CFCD"/>
<path transform="translate(300,376)" d="m0 0 3 1-1 5v9l1 6-3 3-1-5v-16z" fill="#D3CCCA"/>
<path transform="translate(223,404)" d="m0 0h1v16l-5 3 1-11z" fill="#D0C8C6"/>
<path transform="translate(566,149)" d="m0 0 5 2 5 3v2l2 1-7-1-9-4v-2z" fill="#E6E3E3"/>
<path transform="translate(181,419)" d="m0 0 2 2v21l-2 2-1-4v-17z" fill="#D4CCCA"/>
<path transform="translate(607,180)" d="m0 0h10l5 3 5 8-2 1-4-4v-3l-3-2-11-1z" fill="#038F4F"/>
<path transform="translate(164,158)" d="m0 0h1v10l2-1h6l2 5-3 4-5-1 1-2h4l-1-4-6 1-1-1z" fill="#D5CDCC"/>
<path transform="translate(600,150)" d="m0 0h6l-1 3-10 4-3-1 5-4z" fill="#E8E6E6"/>
<path transform="translate(228,402)" d="m0 0 4 2 4 7 1 5h-3l-4-9-3-4z" fill="#D2CBC9"/>
<path transform="translate(584,146)" d="m0 0 1 4h2l1 5-4 3-3-4 1-3h2z" fill="#E3E0DF"/>
<path transform="translate(584,130)" d="m0 0 2 2 1 6-3-1-4 5v5l-2-1v-2l-2-1 5-6z" fill="#038C4E"/>
<path transform="translate(553,161)" d="m0 0h6l-1 2-7 2-3 5-2 4h-2l1-5 6-7z" fill="#038E4F"/>
<path transform="translate(604,148)" d="m0 0h4l-1 5-5 3-5 2-4-1 12-5 1-2h-5z" fill="#0D9A58"/>
<path transform="translate(226,407)" d="m0 0 5 3 1 1v5l-1-2-5 1z" fill="#E7E5E4"/>
<path transform="translate(237,367)" d="m0 0 3 1 1 3-15 2v-3l10-1z" fill="#D2CAC8"/>
<path transform="translate(562,154)" d="m0 0 11 3v2l-11 1z" fill="#E9E8E8"/>
<path transform="translate(256,424)" d="m0 0 2 1v7h-2v-2h-3v-2l-3-1 3-2z" fill="#D6D0CE"/>
<path transform="translate(227,472)" d="m0 0 8 1 6 3v1l-10-1-5-2z" fill="#D1C9C7"/>
<path transform="translate(308,435)" d="m0 0h2l-1 9-2 7h-2l2-12z" fill="#D4CDCB"/>
<path transform="translate(277,413)" d="m0 0h2v6h-5l-1 4-2-3 2-4h2v2h2z" fill="#D1C8C6"/>
<path transform="translate(595,145)" d="m0 0 9 3-5 4-5 3-2-1 6-5-3-2z" fill="#099454"/>
<path transform="translate(253,366)" d="m0 0 5 1 2 2-1 1h-9l-2-2z" fill="#D4CCCB"/>
<path transform="translate(595,147)" d="m0 0 4 2-8 6-1-3z" fill="#E8E7E7"/>
<path transform="translate(602,155)" d="m0 0h3v4h-12l4-2z" fill="#EBEBEB"/>
<path transform="translate(572,147)" d="m0 0 4 2 3 4-1 2-8-6z" fill="#E7E5E5"/>
<path transform="translate(188,401)" d="m0 0h2l-2 6-2 5h-2v-5l2-5z" fill="#D0C7C5"/>
<path transform="translate(546,176)" d="m0 0 3 2-2 6-3 4 1-10z" fill="#04864C"/>
</svg>
